<svg width="73" height="31" viewBox="0 0 73 31" fill="none" xmlns="http://www.w3.org/2000/svg">
<rect width="73" height="31" rx="15.5" fill="#EFF3F4"/>
<path d="M17.4883 20V15.7275H21.8564V14.6338H17.4883V11.2432H22.2461V10.1357H16.2578V20H17.4883ZM27.1475 20.1299C29.2461 20.1299 30.5449 18.6807 30.5449 16.3154C30.5449 13.9434 29.2461 12.501 27.1475 12.501C25.0488 12.501 23.75 13.9434 23.75 16.3154C23.75 18.6807 25.0488 20.1299 27.1475 20.1299ZM27.1475 19.0703C25.7529 19.0703 24.9668 18.0586 24.9668 16.3154C24.9668 14.5654 25.7529 13.5605 27.1475 13.5605C28.542 13.5605 29.3281 14.5654 29.3281 16.3154C29.3281 18.0586 28.542 19.0703 27.1475 19.0703ZM32.459 20H33.6348V9.70508H32.459V20ZM35.9863 20H37.1621V9.70508H35.9863V20ZM42.4736 20.1299C44.5723 20.1299 45.8711 18.6807 45.8711 16.3154C45.8711 13.9434 44.5723 12.501 42.4736 12.501C40.375 12.501 39.0762 13.9434 39.0762 16.3154C39.0762 18.6807 40.375 20.1299 42.4736 20.1299ZM42.4736 19.0703C41.0791 19.0703 40.293 18.0586 40.293 16.3154C40.293 14.5654 41.0791 13.5605 42.4736 13.5605C43.8682 13.5605 44.6543 14.5654 44.6543 16.3154C44.6543 18.0586 43.8682 19.0703 42.4736 19.0703ZM56.7129 12.6309H55.5303L54.0811 18.5234H53.9717L52.3242 12.6309H51.1963L49.5488 18.5234H49.4395L47.9902 12.6309H46.8008L48.8652 20H50.0547L51.6953 14.2988H51.8047L53.4521 20H54.6484L56.7129 12.6309Z" fill="#0F1419"/>
</svg>
