<svg xmlns="http://www.w3.org/2000/svg" viewBox="0 0 34 34"><defs><style>.cls-1{fill:#1d9bf0;opacity:0;}.cls-2{fill:#fff;}</style></defs><g id="Calque_2" data-name="Calque 2"><g id="Calque_1-2" data-name="Calque 1"><path class="cls-1" d="M17,0h0A17,17,0,0,1,34,17h0A17,17,0,0,1,17,34h0A17,17,0,0,1,0,17H0A17,17,0,0,1,17,0Z"/><path class="cls-2" d="M18.7,8.87H15.25a6.43,6.43,0,0,0-6.5,6.5A6.16,6.16,0,0,0,15,21.5v3.19a.66.66,0,0,0,.1.34.62.62,0,0,0,.86.19c.22-.14,5.39-3.45,6.74-4.59a7,7,0,0,0,2.53-5.26h0a6.42,6.42,0,0,0-6.5-6.49Zm3.16,10.81c-.94.8-4.05,2.84-5.64,3.87V20.89a.63.63,0,0,0-.63-.62h-.33A4.93,4.93,0,0,1,10,15.36a5.19,5.19,0,0,1,5.25-5.25H18.7A5.2,5.2,0,0,1,24,15.36a5.82,5.82,0,0,1-2.1,4.32Z"/></g></g></svg>