<svg xmlns="http://www.w3.org/2000/svg" viewBox="0 0 34 34"><defs><style>.cls-1{fill:red;opacity:0;}.cls-2{fill:#fff;}</style></defs><g id="Calque_2" data-name="Calque 2"><g id="Calque_1-2" data-name="Calque 1"><path class="cls-1" d="M17,0h0A17,17,0,0,1,34,17h0A17,17,0,0,1,17,34h0A17,17,0,0,1,0,17H0A17,17,0,0,1,17,0Z"/><path class="cls-2" d="M17,25h0c-2.15,0-8.37-5.65-8.37-11a4.78,4.78,0,0,1,4.51-4.79A4.87,4.87,0,0,1,17,11.55a4.87,4.87,0,0,1,3.87-2.28,4.78,4.78,0,0,1,4.5,4.8c0,5.31-6.21,10.92-8.36,11ZM13.13,10.52a3.5,3.5,0,0,0-3.25,3.55c0,4.78,5.86,9.66,7.12,9.71s7.13-4.93,7.13-9.71a3.5,3.5,0,0,0-3.26-3.55c-2.1,0-3.28,2.45-3.29,2.47a.65.65,0,0,1-1.16,0s-1.18-2.47-3.29-2.47Z"/></g></g></svg>