<svg width="225" height="52" viewBox="0 0 225 52" fill="none" xmlns="http://www.w3.org/2000/svg">
<rect width="225" height="52" rx="26" fill="#1D9BF0"/>
<path d="M92.8647 32V22.1636H96.459V20.022H86.7637V22.1636H90.3579V32H92.8647ZM110.57 22.8442H108.171L106.81 29.4102H106.661L105.05 22.8442H102.743L101.141 29.4102H100.991L99.6299 22.8442H97.1812L99.6216 32H102.162L103.78 25.6831H103.93L105.565 32H108.138L110.57 22.8442ZM115.875 24.4961C117.003 24.4961 117.734 25.2515 117.784 26.4634H113.882C113.965 25.2764 114.754 24.4961 115.875 24.4961ZM117.833 29.3936C117.576 29.9995 116.92 30.3398 115.966 30.3398C114.704 30.3398 113.907 29.4932 113.874 28.1318V28.0073H120.158V27.2686C120.158 24.3633 118.564 22.645 115.866 22.645C113.144 22.645 111.467 24.4878 111.467 27.4678C111.467 30.4395 113.11 32.1992 115.899 32.1992C118.141 32.1992 119.718 31.1201 120.083 29.3936H117.833ZM126.101 24.4961C127.23 24.4961 127.96 25.2515 128.01 26.4634H124.109C124.192 25.2764 124.98 24.4961 126.101 24.4961ZM128.06 29.3936C127.803 29.9995 127.147 30.3398 126.192 30.3398C124.931 30.3398 124.134 29.4932 124.101 28.1318V28.0073H130.384V27.2686C130.384 24.3633 128.791 22.645 126.093 22.645C123.37 22.645 121.693 24.4878 121.693 27.4678C121.693 30.4395 123.337 32.1992 126.126 32.1992C128.367 32.1992 129.944 31.1201 130.31 29.3936H128.06ZM133.057 20.6694V22.9355H131.629V24.8364H133.057V29.5264C133.057 31.311 133.937 32.0332 136.162 32.0332C136.626 32.0332 137.075 31.9834 137.374 31.9253V30.0825C137.141 30.1074 136.975 30.1157 136.66 30.1157C135.838 30.1157 135.473 29.7505 135.473 28.9536V24.8364H137.374V22.9355H135.473V20.6694H133.057Z" fill="white"/>
</svg>
