<svg xmlns="http://www.w3.org/2000/svg" viewBox="0 0 34 34"><defs><style>.cls-1{fill:green;opacity:0;}.cls-2{fill:#fff;}</style></defs><g id="Calque_2" data-name="Calque 2"><g id="Calque_1-2" data-name="Calque 1"><path class="cls-1" d="M17,0h0A17,17,0,0,1,34,17h0A17,17,0,0,1,17,34h0A17,17,0,0,1,0,17H0A17,17,0,0,1,17,0Z"/><path class="cls-2" d="M26.81,20.06a.62.62,0,0,0-.89,0l-1.84,1.85V13.38A3.13,3.13,0,0,0,21,10.25H16.08a.63.63,0,1,0,0,1.25H21a1.88,1.88,0,0,1,1.88,1.88v8.53L21,20.06a.63.63,0,1,0-.89.88L23,23.86a.63.63,0,0,0,.88,0l2.92-2.92a.63.63,0,0,0,0-.88Zm-8.89,2.73H13.05a1.87,1.87,0,0,1-1.87-1.87V12.38L13,14.23a.63.63,0,0,0,.45.19.59.59,0,0,0,.44-.19.63.63,0,0,0,0-.88L11,10.43a.63.63,0,0,0-.88,0L7.19,13.35a.63.63,0,0,0,.89.88l1.85-1.85v8.54A3.12,3.12,0,0,0,13.05,24h4.88a.63.63,0,0,0,0-1.25Z"/></g></g></svg>